<svg width="90" height="90" viewBox="0 0 90 90" fill="none" xmlns="http://www.w3.org/2000/svg">
<path d="M58.1252 29.9995H31.8752C30.8502 29.9995 30.0002 30.8495 30.0002 31.8745V39.3745C30.0002 40.3995 30.8502 41.2495 31.8752 41.2495H58.1252C59.1502 41.2495 60.0002 40.3995 60.0002 39.3745V31.8745C60.0002 30.8495 59.1502 29.9995 58.1252 29.9995ZM56.2502 37.4995H33.7502V33.7495H56.2502V37.4995Z" fill="#E6A859"/>
<path d="M58.1252 48.7505H31.8752C30.8502 48.7505 30.0002 49.6005 30.0002 50.6255V58.1255C30.0002 59.1505 30.8502 60.0005 31.8752 60.0005H58.1252C59.1502 60.0005 60.0002 59.1505 60.0002 58.1255V50.6255C60.0002 49.6005 59.1502 48.7505 58.1252 48.7505ZM56.2502 56.2505H33.7502V52.5005H56.2502V56.2505Z" fill="#E6A859"/>
<path d="M58.1252 67.5H31.8752C30.8502 67.5 30.0002 68.35 30.0002 69.375V76.875C30.0002 77.9 30.8502 78.75 31.8752 78.75H58.1252C59.1502 78.75 60.0002 77.9 60.0002 76.875V69.375C60.0002 68.35 59.1502 67.5 58.1252 67.5ZM56.2502 75H33.7502V71.25H56.2502V75Z" fill="#E6A859"/>
<path d="M88.1249 15H67.4999V1.875C67.4999 0.85 66.6499 0 65.6249 0H24.375C23.35 0 22.5 0.85 22.5 1.875V15H1.875C0.849999 15 0 15.85 0 16.875V46.875C0 47.9 0.849999 48.75 1.875 48.75C2.9 48.75 3.74999 47.9 3.74999 46.875V37.5H22.5V67.5H3.74999V58.125C3.74999 57.1 2.9 56.25 1.875 56.25C0.849999 56.25 0 57.1 0 58.125V88.125C0 89.15 0.849999 90 1.875 90H88.1249C89.1499 90 89.9999 89.15 89.9999 88.125V58.125C89.9999 57.1 89.1499 56.25 88.1249 56.25C87.0999 56.25 86.2499 57.1 86.2499 58.125V67.5H67.4999V37.5H86.2499V46.875C86.2499 47.9 87.0999 48.75 88.1249 48.75C89.1499 48.75 89.9999 47.9 89.9999 46.875V16.875C89.9999 15.85 89.1499 15 88.1249 15ZM26.25 3.75H63.7499V18.75H26.25V3.75ZM3.74999 33.75V18.75H22.5V33.75H3.74999ZM22.5 71.25V86.25H3.74999V71.25H22.5ZM26.25 22.5H63.7499V86.25H26.25V22.5ZM86.2499 71.25V86.25H67.4999V71.25H86.2499ZM67.4999 33.75V18.75H86.2499V33.75H67.4999Z" fill="#E6A859"/>
<path d="M1.87501 54.3752C2.91054 54.3752 3.75001 53.5358 3.75001 52.5002C3.75001 51.4647 2.91054 50.6252 1.87501 50.6252C0.839469 50.6252 0 51.4647 0 52.5002C0 53.5358 0.839469 54.3752 1.87501 54.3752Z" fill="#E6A859"/>
<path d="M88.1251 54.3752C89.1606 54.3752 90.0001 53.5358 90.0001 52.5002C90.0001 51.4647 89.1606 50.6252 88.1251 50.6252C87.0896 50.6252 86.2501 51.4647 86.2501 52.5002C86.2501 53.5358 87.0896 54.3752 88.1251 54.3752Z" fill="#E6A859"/>
</svg>
