<svg width="90" height="90" viewBox="0 0 90 90" fill="none" xmlns="http://www.w3.org/2000/svg">
<path d="M13.3058 14.8787C10.1633 14.8787 7.59448 17.4286 7.59448 20.6037V35.8548H11.4104V20.6037C11.4104 19.5537 12.2583 18.7039 13.3058 18.7039H58.947V14.8787H13.3058Z" fill="#E6A859"/>
<path d="M13.3057 71.2694C12.2582 71.2694 11.4102 70.4193 11.4102 69.3692V50.2932H7.61926V69.3692C7.61926 72.5194 10.1632 75.0943 13.3306 75.0943H32.3602V71.2944H13.3057V71.2694Z" fill="#E6A859"/>
<path d="M60.3186 75.8369L14.1288 29.5345C13.3806 28.7844 12.1834 28.7844 11.4352 29.5345L0.561161 40.435C-0.187054 41.185 -0.187054 42.3853 0.561161 43.1353L46.751 89.4375C47.4992 90.1875 48.6963 90.1875 49.4446 89.4375L60.3186 78.5369C61.0668 77.8119 61.0668 76.6119 60.3186 75.8369C60.3186 75.8619 60.3186 75.8619 60.3186 75.8369ZM48.0978 85.3873L4.60153 41.7851L12.782 33.5847L56.2783 77.2118L48.0978 85.3873Z" fill="#E6A859"/>
<path d="M82.1915 70.9318H53.6595V74.732H74.5846V84.2574C74.5846 85.3074 75.4326 86.1575 76.4801 86.1575H82.1915C86.3815 86.2575 89.8732 82.9324 89.9979 78.7322C90.0976 74.532 86.7805 71.0317 82.5905 70.9067C82.4409 70.9317 82.3162 70.9318 82.1915 70.9318ZM82.1915 82.3823H78.4005V74.757H82.1915C84.2865 74.757 86.0074 76.4569 86.0074 78.582C86.0074 80.7071 84.2865 82.3573 82.1915 82.3823Z" fill="#E6A859"/>
<path d="M82.1813 13.7305H72.679V17.5307H82.1813C84.2763 17.5307 85.9722 19.2306 85.9722 21.3557V78.5587H89.7632V21.3557C89.7881 17.1555 86.3713 13.7305 82.1813 13.7305Z" fill="#E6A859"/>
<path d="M34.3124 52.9731L28.5927 58.6921L31.276 61.3752L36.9958 55.6562L34.3124 52.9731Z" fill="#E6A859"/>
<path d="M26.8429 45.4799L21.1232 51.199L23.8065 53.882L29.5263 48.163L26.8429 45.4799Z" fill="#E6A859"/>
<path d="M41.777 60.4632L36.0573 66.1821L38.7406 68.8651L44.4604 63.1462L41.777 60.4632Z" fill="#E6A859"/>
<path d="M49.2517 67.9609L43.532 73.6799L46.2154 76.363L51.9351 70.644L49.2517 67.9609Z" fill="#E6A859"/>
<path d="M19.3682 37.9868L13.6484 43.7058L16.3318 46.3888L22.0516 40.6698L19.3682 37.9868Z" fill="#E6A859"/>
<path d="M80.5403 4.21879L77.9216 1.59383C75.7019 -0.531277 72.1852 -0.531277 69.9655 1.59383L41.0346 30.5953C40.2863 31.3453 40.2863 32.5453 41.0346 33.2953L48.9158 41.1958C49.664 41.9458 50.8611 41.9458 51.6093 41.1958L80.5403 12.1944C82.7351 9.99424 82.7351 6.4189 80.5403 4.21879ZM77.8467 9.49402L50.2625 37.1456L45.0749 31.9454L72.6342 4.29386C73.3574 3.59383 74.4798 3.59383 75.2031 4.29386L77.8218 6.91912C78.5451 7.61916 78.5451 8.76898 77.8467 9.49402Z" fill="#E6A859"/>
<path d="M50.4247 37.4348L42.2193 40.1852L44.9627 31.9346L41.3463 30.7346L37.4057 42.5852C37.0815 43.5852 37.6302 44.6602 38.6278 44.9852C38.8273 45.0352 39.0269 45.0853 39.2264 45.0853C39.4259 45.0853 39.6254 45.0602 39.825 44.9852L51.6468 41.0351L50.4247 37.4348Z" fill="#E6A859"/>
<path d="M67.672 6.90636L64.9886 9.58936L72.8797 17.4794L75.5631 14.7964L67.672 6.90636Z" fill="#E6A859"/>
<path d="M67.524 41.1877H38.9921V44.9879H67.524V41.1877Z" fill="#E6A859"/>
<path d="M74.8315 41.1877H71.0405V44.9879H74.8315V41.1877Z" fill="#E6A859"/>
<path d="M82.1765 41.1877H78.3855V44.9879H82.1765V41.1877Z" fill="#E6A859"/>
</svg>
