<svg width="90" height="90" viewBox="0 0 90 90" fill="none" xmlns="http://www.w3.org/2000/svg">
<path d="M86.9247 25.5588H72.8497L81.2497 14.9626C82.1997 13.7388 82.1247 11.9032 81.0497 10.7907L77.4247 7.11936C76.3747 6.03468 74.7247 6.11828 73.7747 7.28639C73.7497 7.3142 73.7497 7.31426 73.7247 7.34207L59.2498 25.5588H34.075C33.325 25.5866 32.75 26.2821 32.8 27.1165C32.825 27.8952 33.375 28.5071 34.075 28.5349H56.9248L51.0499 35.933C50.5749 36.5171 50.3499 37.2955 50.3749 38.0743C50.3749 38.1577 50.3999 38.2692 50.3999 38.3527L48.3749 44.5269C48.0749 45.4447 48.2999 46.4735 48.9499 47.1132C49.5749 47.7529 50.5249 47.9198 51.2749 47.4748L56.4998 44.5269H56.5998H56.7498C57.4498 44.4991 58.0998 44.1376 58.5498 43.5535L70.4998 28.5071H86.9247C87.1747 28.5071 87.3747 28.7294 87.3747 29.0075V86.4953C87.3747 86.7734 87.1747 86.996 86.9497 86.996H77.3497C76.5997 87.0239 76.0247 87.719 76.0747 88.5533C76.0997 89.3321 76.6497 89.944 77.3497 89.9718H86.9247C88.6247 89.944 89.9997 88.3865 89.9997 86.4953V29.0075C90.0247 27.1441 88.6497 25.5866 86.9247 25.5588ZM79.2997 12.988L77.7247 14.9626L74.1497 11.319L75.7247 9.34446L79.2997 12.988ZM72.3748 13.5441L73.1747 14.3786L53.8249 38.7696L53.0249 37.9354L72.3748 13.5441ZM52.2749 41.1892L53.7999 42.7469L51.3249 44.1375L52.2749 41.1892ZM56.5998 41.5786L55.7998 40.7445L75.1497 16.3532L75.9497 17.1873L56.5998 41.5786Z" fill="#E6A859"/>
<path d="M71.5997 87.0242H12.3002C6.92527 86.9686 2.60031 82.0735 2.65031 76.0939V75.3151C2.62531 69.3355 6.92527 64.4686 12.3002 64.3851H15.0002C16.7002 64.3573 18.0752 62.7998 18.0752 60.9086V28.5909H28.3501C29.1001 28.5909 29.7001 27.9233 29.7001 27.089C29.7001 26.2546 29.1001 25.587 28.3501 25.587H18.0752V20.414C18.0752 19.6075 17.4752 18.9399 16.7502 18.9399C16.0252 18.9399 15.4252 19.6075 15.4252 20.414V60.8808C15.4252 61.1589 15.2252 61.3812 14.9752 61.3812H12.2752C8.50025 61.3812 4.92528 63.356 2.6253 66.6934V13.9061C2.5753 7.92646 6.90027 3.03137 12.2752 2.97575H14.9752C15.2252 2.97575 15.4252 3.19839 15.4252 3.47652V13.9339C15.4252 14.7405 16.0252 15.408 16.7502 15.408C17.4752 15.408 18.0752 14.7405 18.0752 13.9339V3.47652C18.0752 1.58529 16.7002 0.0278121 15.0002 0H12.3002C5.45029 0.0834364 -0.0496613 6.28554 0.00033822 13.9061V76.0939C-0.0496613 83.7145 5.45029 89.9166 12.3002 90H71.5997C72.3497 90 72.9497 89.3324 72.9497 88.498C72.9497 87.6915 72.3497 87.0242 71.5997 87.0242Z" fill="#E6A859"/>
<path d="M70.3497 41.7182C64.9998 41.7182 60.5498 46.3627 60.2248 52.3145H54.1498C53.4248 52.3145 52.8248 52.9821 52.8248 53.7886V70.5316C52.8248 71.3382 53.4248 72.0057 54.1498 72.0057H69.1997C69.9247 72.0057 70.5247 71.3382 70.5247 70.5316V64.2739C76.1247 64.2182 80.6247 59.1287 80.5747 52.8988C80.5497 46.641 75.9497 41.6626 70.3497 41.7182ZM67.9247 60.8809C65.5998 59.9909 63.8248 57.8771 63.1498 55.2349H67.9247V60.8809ZM55.4998 69.0575V55.2349H60.4248C61.2248 59.4902 64.1248 62.8832 67.9247 63.9123V69.0296H55.4998V69.0575ZM70.5497 61.3256V53.7886C70.5497 52.9821 69.9497 52.3145 69.2247 52.3145H62.8748C63.1998 47.7255 66.8247 44.3046 70.9497 44.6661C75.0747 45.0277 78.1497 49.0608 77.8247 53.6498C77.5247 57.905 74.3747 61.2144 70.5497 61.3256Z" fill="#E6A859"/>
<path d="M75.2498 65.3582C74.5248 65.3582 73.9248 66.0257 73.9248 66.8323C73.9248 67.6388 74.5248 68.306 75.2498 68.306H78.1747C78.8996 68.306 79.4996 67.6388 79.4996 66.8323C79.4996 66.0257 78.8996 65.3582 78.1747 65.3582H75.2498Z" fill="#E6A859"/>
<path d="M79.4996 70.6707C79.4996 69.8641 78.8996 69.1965 78.1747 69.1965H75.2498C74.5248 69.1965 73.9248 69.8641 73.9248 70.6707C73.9248 71.4772 74.5248 72.1445 75.2498 72.1445H78.1747C78.9246 72.1445 79.4996 71.4772 79.4996 70.6707Z" fill="#E6A859"/>
<path d="M24.1002 40.7449H26.2002C26.9252 40.7449 27.5252 40.0773 27.5252 39.2708C27.5252 38.4642 26.9252 37.7966 26.2002 37.7966H24.1002C23.3752 37.7966 22.7751 38.4642 22.7751 39.2708C22.7751 40.1051 23.3752 40.7449 24.1002 40.7449Z" fill="#E6A859"/>
<path d="M24.1002 45.0834H34.2751C35.0001 45.0834 35.6001 44.4158 35.6001 43.6093C35.6001 42.8027 35.0001 42.1355 34.2751 42.1355H24.1002C23.3752 42.1355 22.7751 42.8027 22.7751 43.6093C22.7751 44.4436 23.3752 45.0834 24.1002 45.0834Z" fill="#E6A859"/>
<path d="M32.1501 40.7449H34.25C34.9749 40.7449 35.5749 40.0773 35.5749 39.2708C35.5749 38.4642 34.9749 37.7966 34.25 37.7966H32.1501C31.4251 37.7966 30.8251 38.4642 30.8251 39.2708C30.8501 40.1051 31.4251 40.7449 32.1501 40.7449Z" fill="#E6A859"/>
<path d="M42.3501 37.824H40.2501C39.525 37.824 38.925 38.4916 38.925 39.2981C38.925 40.1047 39.525 40.7722 40.2501 40.7722H42.3501C43.0751 40.7722 43.6751 40.1047 43.6751 39.2981C43.6501 38.4637 43.0751 37.824 42.3501 37.824Z" fill="#E6A859"/>
<path d="M24.1002 49.3945H34.2751C35.0001 49.3945 35.6001 48.727 35.6001 47.9204C35.6001 47.1139 35.0001 46.4463 34.2751 46.4463H24.1002C23.3752 46.4463 22.7751 47.1139 22.7751 47.9204C22.7751 48.7548 23.3752 49.3945 24.1002 49.3945Z" fill="#E6A859"/>
<path d="M22.7751 52.259C22.7751 53.0656 23.3752 53.7328 24.1001 53.7328H40.225C40.9499 53.7328 41.5499 53.0656 41.5499 52.259C41.5499 51.4525 40.9499 50.7849 40.225 50.7849H24.1001C23.3752 50.7849 22.7751 51.4247 22.7751 52.259Z" fill="#E6A859"/>
<path d="M43.6501 56.5417C43.6501 55.7352 43.0501 55.0676 42.3251 55.0676H24.0752C23.3502 55.0676 22.7502 55.7352 22.7502 56.5417C22.7502 57.3483 23.3502 58.0159 24.0752 58.0159H42.3251C43.0751 58.0159 43.6501 57.3483 43.6501 56.5417Z" fill="#E6A859"/>
<path d="M29.0501 63.551C29.0501 62.7445 28.4501 62.0769 27.7251 62.0769H24.1002C23.3752 62.0769 22.7751 62.7445 22.7751 63.551V67.5836C22.7751 68.3902 23.3752 69.0578 24.1002 69.0578H27.7251C28.4501 69.0578 29.0501 68.3902 29.0501 67.5836V63.551ZM26.4002 66.1377H25.4001V65.0251H26.4002V66.1377Z" fill="#E6A859"/>
<path d="M37.7748 63.551C37.7748 62.7445 37.1749 62.0769 36.4499 62.0769H32.8251C32.1001 62.0769 31.5002 62.7445 31.5002 63.551V67.5836C31.5002 68.3902 32.1001 69.0578 32.8251 69.0578H36.4499C37.1749 69.0578 37.7748 68.3902 37.7748 67.5836V63.551ZM35.125 66.1377H34.125V65.0251H35.125V66.1377Z" fill="#E6A859"/>
<path d="M46.475 63.551C46.475 62.7445 45.875 62.0769 45.15 62.0769H41.5001C40.7751 62.0769 40.1752 62.7445 40.1752 63.551V67.5836C40.1752 68.3902 40.7751 69.0578 41.5001 69.0578H45.125C45.85 69.0578 46.45 68.3902 46.45 67.5836L46.475 63.551ZM43.85 66.1377H42.8501V65.0251H43.85V66.1377Z" fill="#E6A859"/>
<path d="M27.7251 72.7568H24.1002C23.3752 72.7568 22.7751 73.4241 22.7751 74.2306V78.2636C22.7751 79.0701 23.3752 79.7377 24.1002 79.7377H27.7251C28.4501 79.7377 29.0501 79.0701 29.0501 78.2636V74.2306C29.0501 73.3963 28.4501 72.7568 27.7251 72.7568ZM26.4002 76.7894H25.4001V75.6769H26.4002V76.7894Z" fill="#E6A859"/>
<path d="M36.4499 72.7568H32.8251C32.1001 72.7568 31.5002 73.4241 31.5002 74.2306V78.2636C31.5002 79.0701 32.1001 79.7377 32.8251 79.7377H36.4499C37.1749 79.7377 37.7748 79.0701 37.7748 78.2636V74.2306C37.7748 73.3963 37.1749 72.7568 36.4499 72.7568ZM35.125 76.7894H34.125V75.6769H35.125V76.7894Z" fill="#E6A859"/>
<path d="M41.525 79.7377H45.1499C45.8749 79.7377 46.4749 79.0701 46.4749 78.2636V74.2306C46.4749 73.4241 45.8749 72.7568 45.1499 72.7568H41.525C40.8 72.7568 40.2 73.4241 40.2 74.2306V78.2636C40.2 79.0701 40.8 79.7377 41.525 79.7377ZM42.85 75.6769H43.8499V76.7894H42.85V75.6769Z" fill="#E6A859"/>
</svg>
